<svg xmlns="http://www.w3.org/2000/svg" viewBox="0 0 28 36">
  <path d="M 10.5 19 Q 9.2 25 10 30.5 Q 11 33 14 33 Q 17 33 18 30.5 Q 18.8 25 17.5 19 Z" fill="#7A4F2E"/>
  <path d="M 11 21 Q 10.4 26 11 31" stroke="#9A6B45" stroke-width="0.7" stroke-linecap="round" fill="none" opacity="0.7"/>
  <ellipse cx="14" cy="19.3" rx="5" ry="1.2" fill="#4E2E18" opacity="0.5"/>
  <path d="M 2 18 Q 1.5 3 14 2 Q 26.5 3 26 18 Q 20 21 14 20.8 Q 8 21 2 18 Z" fill="#D27950"/>
  <path d="M 5 12 Q 8 5 13 4.5" stroke="#F0A37C" stroke-width="1.4" stroke-linecap="round" fill="none" opacity="0.6"/>
  <circle cx="7"  cy="11"   r="1.3" fill="#FDF8F2"/>
  <circle cx="13" cy="6.5"  r="1.7" fill="#FDF8F2"/>
  <circle cx="20" cy="10.5" r="1.4" fill="#FDF8F2"/>
  <circle cx="10" cy="15.5" r="1"   fill="#FDF8F2"/>
  <circle cx="16" cy="13.5" r="1.1" fill="#FDF8F2"/>
  <circle cx="22" cy="14.5" r="0.9" fill="#FDF8F2"/>
</svg>
