<svg xmlns="http://www.w3.org/2000/svg" viewBox="0 0 512 512" role="img" aria-label="SER - Crescer na Aldeia">
  <rect width="512" height="512" fill="#9EA966"/>
  <path d="M218 288 L292 288 L306 386 L214 400 Z" fill="#73481F"/>
  <path d="M152 288 C165 218 184 151 227 123 C263 99 304 124 342 169 C371 204 395 242 414 266 C337 270 240 285 152 288 Z" fill="#D56F36"/>
  <path d="M152 288 C184 284 227 281 275 276 C324 271 374 268 414 266 C403 255 390 239 377 220 C339 232 267 251 153 286 Z" fill="#C75F2C" opacity=".34"/>
  <g fill="none" stroke="#F4E2C4" stroke-width="7.5" stroke-linecap="round">
    <path d="M224 132 l-16 12"/>
    <path d="M246 123 l-16 19"/>
    <path d="M273 128 l18 10"/>
    <path d="M214 163 l-9 24"/>
    <path d="M238 155 l-7 23"/>
    <path d="M266 154 l1 26"/>
    <path d="M296 155 l15 19"/>
    <path d="M324 169 l16 17"/>
    <path d="M193 195 l-8 26"/>
    <path d="M222 192 l-8 25"/>
    <path d="M252 190 l-3 27"/>
    <path d="M282 192 l7 27"/>
    <path d="M315 199 l15 23"/>
    <path d="M352 209 l13 24"/>
    <path d="M179 235 l-7 28"/>
    <path d="M207 231 l-6 26"/>
    <path d="M236 228 l-4 28"/>
    <path d="M267 226 l1 29"/>
    <path d="M298 228 l9 28"/>
    <path d="M333 234 l14 25"/>
    <path d="M372 238 l13 22"/>
    <path d="M172 270 l-4 15"/>
    <path d="M199 264 l-2 17"/>
    <path d="M228 261 l-1 18"/>
    <path d="M258 257 l2 18"/>
  </g>
  <path d="M218 288 L292 288" stroke="#B85628" stroke-width="4" opacity=".32"/>
</svg>
